<svg xmlns="http://www.w3.org/2000/svg" xmlns:xlink="http://www.w3.org/1999/xlink" width="620" height="40" version="1.1" viewBox="0 0 620 40"><title>line</title><desc>Created with Sketch.</desc><defs><circle id="path-1" cx="310" cy="20" r="20"/><mask id="mask-2" width="40" height="40" x="0" y="0" fill="#fff" maskContentUnits="userSpaceOnUse" maskUnits="objectBoundingBox"><use xlink:href="#path-1"/></mask></defs><g id="13-april-2016" fill="none" fill-rule="evenodd" stroke="none" stroke-width="1"><g id="get-started-3-copy-6" transform="translate(-410.000000, -1105.000000)"><g id="line" transform="translate(410.000000, 1105.000000)"><rect id="Rectangle-11" width="620" height="1" x="0" y="20" fill="#000" opacity=".1"/><use id="Oval-137" fill="#FFF" stroke="#000" stroke-opacity=".1" stroke-width="2" mask="url(#mask-2)" xlink:href="#path-1"/><path id="Combined-Shape-Copy" fill="#A9A6AF" d="M313.709514,21.7070125 C313.889428,21.5266622 314,21.277802 314,21.0029699 L314,14.9970301 C314,14.4530363 313.552285,14 313,14 C312.443865,14 312,14.4463856 312,14.9970301 L312,20 L306.99703,20 C306.453036,20 306,20.4477153 306,21 C306,21.5561352 306.446386,22 306.99703,22 L313.00297,22 C313.27448,22 313.523331,21.8884718 313.704508,21.7080784 Z" transform="translate(310.000000, 18.000000) rotate(-315.000000) translate(-310.000000, -18.000000)"/></g></g></g></svg>