<svg xmlns="http://www.w3.org/2000/svg" xmlns:xlink="http://www.w3.org/1999/xlink" width="42" height="42" version="1.1" viewBox="0 0 42 42"><title>Combined Shape</title><desc>Created with Sketch.</desc><g id="icons" fill="none" fill-rule="evenodd" stroke="none" stroke-width="1"><g id="Icons-Copy" fill="#FFF" transform="translate(-599.000000, -99.000000)"><path id="Combined-Shape" d="M637,117.026174 L637,138.997141 C637,140.103289 636.098149,141 634.997141,141 L601.002859,141 C599.896711,141 599,140.098149 599,138.997141 L599,105.002859 C599,103.896711 599.901851,103 601.002859,103 L626.979336,103 L625.400389,105 L601,105 L601,139 L635,139 L635,119.559508 L637,117.026174 Z M626.254209,109.281506 C625.913461,108.849892 625.917071,108.145536 626.254209,107.718494 L632.883022,99.3219981 C633.223769,98.8903843 633.77984,98.8949564 634.116978,99.3219981 L640.745791,107.718494 C641.086539,108.150108 641.082929,108.854464 640.745791,109.281506 L634.116978,117.678002 C633.776231,118.109616 633.22016,118.105044 632.883022,117.678002 L626.254209,109.281506 Z M610,105 L611,105 L611,139 L610,139 L610,105 Z"/></g></g></svg>