<svg xmlns="http://www.w3.org/2000/svg" xmlns:xlink="http://www.w3.org/1999/xlink" width="39" height="44" version="1.1" viewBox="0 0 39 44"><title>mesos</title><desc>Created with Sketch.</desc><g id="Page-1" fill="none" fill-rule="evenodd" stroke="none" stroke-width="1"><g id="install-copy-5" fill="#A9A6AF" fill-rule="nonzero" transform="translate(-485.000000, -1026.000000)"><g id="Group-11" transform="translate(239.000000, 1026.000000)"><g id="item-2" transform="translate(246.333333, 0.000000)"><g id="mesos"><g id="Group" opacity=".5" transform="translate(9.737500, 0.000000)"><polygon id="Shape" points=".019 17.204 .019 26.796 8.165 21.99"/><polygon id="Shape" points=".546 27.732 8.702 32.522 8.702 22.931"/><polygon id="Shape" points="9.766 22.931 9.766 32.522 17.927 27.732"/><polygon id="Shape" points="10.293 21.99 18.449 26.796 18.449 17.204"/><polygon id="Shape" points=".019 28.658 .019 38.259 8.165 33.439"/><polygon id="Shape" points=".546 39.18 8.702 43.971 8.702 34.38"/><polygon id="Shape" points="9.766 34.38 9.766 43.971 17.927 39.18"/><polygon id="Shape" points="10.293 33.439 18.449 38.259 18.449 28.658"/><polygon id="Shape" points=".546 4.829 8.702 9.62 8.702 .029"/><polygon id="Shape" points="9.766 .029 9.766 9.62 17.927 4.829"/></g><g id="Group" transform="translate(0.000000, 5.741228)"><polygon id="Shape" points="0 5.736 0 15.328 8.151 10.542"/><polygon id="Shape" points=".527 16.249 8.697 21.054 8.697 11.463"/><polygon id="Shape" points="29.246 11.463 29.246 21.069 37.459 16.249"/><polygon id="Shape" points="29.773 10.542 38 15.328 38 5.736"/><polygon id="Shape" points="0 17.19 0 26.781 8.151 21.99"/><polygon id="Shape" points=".527 27.698 8.697 32.518 8.697 22.917"/><polygon id="Shape" points="29.246 22.917 29.246 32.518 37.459 27.698"/><polygon id="Shape" points=".527 4.815 8.697 9.615 8.697 .01"/><polygon id="Shape" points="9.757 .01 9.757 9.615 17.903 4.815"/><polygon id="Shape" points="10.284 10.542 18.439 15.328 18.439 5.736"/><polygon id="Shape" points="19.503 5.736 19.503 15.328 27.664 10.542"/><polygon id="Shape" points="20.031 4.815 28.186 9.615 28.186 .01"/><polygon id="Shape" points="29.246 .01 29.246 9.615 37.459 4.815"/><polygon id="Shape" points="29.773 21.99 38 26.781 38 17.19"/></g></g></g></g></g></g></svg>