<svg xmlns="http://www.w3.org/2000/svg" xmlns:xlink="http://www.w3.org/1999/xlink" width="42" height="41" version="1.1" viewBox="0 0 42 41"><title>Group 11</title><desc>Created with Sketch.</desc><g id="13-april-2016" fill="none" fill-rule="evenodd" stroke="none" stroke-width="1"><g id="homepage-copy-5" fill="#A9A6AF" transform="translate(-490.000000, -760.000000)"><g id="Group-11" transform="translate(490.000000, 760.000000)"><path id="Combined-Shape" d="M17.6231649,28.2544858 L12.6975275,40.2949327 C5.22867733,37.0768478 0,29.6490354 0,21 C0,9.40202025 9.40202025,0 21,0 C32.5979797,0 42,9.40202025 42,21 C42,29.6490354 36.7713227,37.0768478 29.3024725,40.2949327 L24.3768351,28.2544858 C27.1074933,26.9812459 29,24.2116323 29,21 C29,16.581722 25.418278,13 21,13 C16.581722,13 13,16.581722 13,21 C13,24.2116323 14.8925067,26.9812459 17.6231649,28.2544858 Z"/></g></g></g></svg>