<svg xmlns="http://www.w3.org/2000/svg" xmlns:xlink="http://www.w3.org/1999/xlink" id="Layer_1" x="0" y="0" enable-background="new 0 0 960 960" version="1.1" viewBox="0 0 960 960" xml:space="preserve"><style type="text/css">.st0{fill:#004561}.st1{fill:#39a9dc}</style><g><g><g><polygon points="285.4 380.6 285.4 579.4 456.9 479.8" class="st0"/><polygon points="296.5 598.8 468.2 698.1 468.2 499.3" class="st0"/><polygon points="490.6 499.3 490.6 698.1 662.4 598.8" class="st0"/><polygon points="501.7 479.8 673.4 579.4 673.4 380.6" class="st0"/><polygon points="285.4 618 285.4 817 456.9 717.1" class="st0"/><polygon points="296.5 836.1 468.2 935.4 468.2 736.6" class="st0"/><polygon points="490.6 736.6 490.6 935.4 662.4 836.1" class="st0"/><polygon points="501.7 717.1 673.4 817 673.4 618" class="st0"/><polygon points="296.5 124.1 468.2 223.4 468.2 24.6" class="st0"/><polygon points="490.6 24.6 490.6 223.4 662.4 124.1" class="st0"/></g><g><polygon points="80 261.9 80 460.7 251.6 361.5" class="st1"/><polygon points="91.1 479.8 263.1 579.4 263.1 380.6" class="st1"/><polygon points="695.7 380.6 695.7 579.7 868.6 479.8" class="st1"/><polygon points="706.8 361.5 880 460.7 880 261.9" class="st1"/><polygon points="80 499.3 80 698.1 251.6 598.8" class="st1"/><polygon points="91.1 717.1 263.1 817 263.1 618" class="st1"/><polygon points="695.7 618 695.7 817 868.6 717.1" class="st1"/><polygon points="91.1 242.8 263.1 342.3 263.1 143.2" class="st1"/><polygon points="285.4 143.2 285.4 342.3 456.9 242.8" class="st1"/><polygon points="296.5 361.5 468.2 460.7 468.2 261.9" class="st1"/><polygon points="490.6 261.9 490.6 460.7 662.4 361.5" class="st1"/><polygon points="501.7 242.8 673.4 342.3 673.4 143.2" class="st1"/><polygon points="695.7 143.2 695.7 342.3 868.6 242.8" class="st1"/><polygon points="706.8 598.8 880 698.1 880 499.3" class="st1"/></g></g></g></svg>